<svg height="512pt" viewBox="0 0 512.00168 512" width="512pt" xmlns="http://www.w3.org/2000/svg"><path d="m421.488281 357.84375-63.273437-63.273438c34.28125-61.175781 27.21875-142.5-27.449219-197.167968l-84.851563-84.847656c0-.003907-.003906-.007813-.007812-.007813-15.964844-15.964844-43.519531-16.71875-77.585938-2.117187-29.761718 12.753906-62.480468 36.109374-92.128906 65.761718-29.652344 29.648438-53.007812 62.367188-65.761718 92.128906-14.601563 34.066407-13.851563 61.621094 2.117187 77.585938l84.855469 84.859375c54.671875 54.671875 135.992187 61.730469 197.167968 27.449219l63.289063 63.289062c-13.558594 23-10.46875 53.171875 9.265625 72.90625 23.453125 23.453125 61.40625 23.453125 84.859375 0 7.511719-7.511718 12.832031-16.792968 15.535156-26.894531 10.101563-2.703125 19.382813-8.019531 26.894531-15.535156 23.453126-23.453125 23.449219-61.410157 0-84.859375-20.230468-20.222656-50.511718-22.546875-72.925781-9.277344zm-196.796875-324.085938c6.316406 6.316407 4.648438 23.804688-4.246094 44.554688-11.285156 26.335938-32.382812 55.71875-59.398437 82.734375-27.015625 27.019531-56.398437 48.113281-82.734375 59.398437-20.75 8.894532-38.238281 10.5625-44.554688 4.25-6.3125-6.316406-4.644531-23.804687 4.246094-44.554687 11.289063-26.335937 32.382813-55.71875 59.398438-82.738281 27.015625-27.015625 56.398437-48.109375 82.734375-59.394532 11.335937-4.859374 35.910156-12.894531 44.554687-4.25zm84.859375 275.792969c-52.769531 52.769531-138.171875 52.761719-190.933593 0l-53.328126-53.332031c7.796876-1.726562 16.101563-4.453125 24.84375-8.199219 29.761719-12.753906 62.480469-36.109375 92.128907-65.757812 29.652343-29.652344 53.007812-62.371094 65.761719-92.132813 3.746093-8.738281 6.472656-17.042968 8.199218-24.839844l53.328125 53.328126c52.769531 52.769531 52.761719 138.171874 0 190.933593zm110.609375 89.394531 10.605469-10.605468c11.726563-11.726563 30.707031-11.726563 42.429687 0 11.726563 11.726562 11.726563 30.703125 0 42.425781-11.371093 11.375-24.296874 8.160156-32.945312 9.488281-1.34375 8.746094 1.898438 21.558594-9.480469 32.945313-11.730469 11.722656-30.707031 11.722656-42.429687 0-11.699219-11.699219-11.699219-30.734375 0-42.433594l10.605468-10.605469-79.269531-79.265625c3.820313-3.195312 7.527344-6.566406 11.089844-10.128906s6.933594-7.265625 10.128906-11.085937zm0 0"/><path d="m171.65625 108.011719-63.644531 63.640625-21.214844-21.210938 63.644531-63.644531zm0 0"/></svg>