<?xml version="1.0" encoding="iso-8859-1"?>
<!-- Generator: Adobe Illustrator 19.0.0, SVG Export Plug-In . SVG Version: 6.00 Build 0)  -->
<svg xmlns="http://www.w3.org/2000/svg" xmlns:xlink="http://www.w3.org/1999/xlink" version="1.1" id="Capa_1" x="0px" y="0px" viewBox="0 0 512 512" style="enable-background:new 0 0 512 512;" xml:space="preserve" width="512px" height="512px">
<g>
	<g>
		<path d="M437.019,74.981C388.668,26.628,324.38,0,256,0S123.332,26.628,74.981,74.981C26.628,123.332,0,187.62,0,256    c0,68.38,26.628,132.668,74.981,181.019C123.333,485.372,187.62,512,256,512s132.668-26.628,181.019-74.981    C485.372,388.668,512,324.38,512,256S485.372,123.332,437.019,74.981z M31.084,256C31.084,131.981,131.981,31.084,256,31.084    c56.428,0,108.066,20.893,147.594,55.343l-53.419,53.419C321.2,125.738,289.176,118.273,256,118.273    c-57.531,0-111.62,22.404-152.302,63.086c-6.07,6.069-6.07,15.91,0,21.979c6.069,6.069,15.91,6.069,21.979,0    c34.81-34.81,81.094-53.982,130.323-53.982c24.657,0,48.573,4.811,70.68,13.984l-34.225,34.226    c-11.746-3.126-23.975-4.747-36.455-4.747c-37.62,0-72.988,14.651-99.59,41.252c-6.07,6.069-6.07,15.91,0,21.979    c3.035,3.035,7.012,4.553,10.989,4.553s7.955-1.518,10.989-4.553c20.731-20.731,48.293-32.148,77.61-32.148    c3.254,0,6.486,0.149,9.691,0.428L86.427,403.595C51.977,364.066,31.084,312.429,31.084,256z M282.996,306.664    c14.885,14.886,14.885,39.106,0,53.992c-14.886,14.884-39.106,14.886-53.991,0c-14.886-14.886-14.886-39.106,0-53.992    c7.442-7.442,17.219-11.163,26.995-11.163C265.777,295.501,275.553,299.222,282.996,306.664z M256,480.916    c-56.428,0-108.066-20.893-147.594-55.343l79.494-79.494c2.423,13.4,8.788,26.22,19.126,36.556    c13.503,13.503,31.238,20.254,48.975,20.254s35.473-6.751,48.975-20.254c27.004-27.004,27.004-70.946,0-97.951    c-10.336-10.337-23.156-16.702-36.555-19.126l32.227-32.227c12.131,5.404,23.291,13.047,32.963,22.719    c6.069,6.071,15.91,6.069,21.979,0c6.07-6.069,6.07-15.91,0-21.979c-9.558-9.558-20.252-17.564-31.772-23.911l31.693-31.693    c11.005,7.087,21.336,15.394,30.812,24.87c3.035,3.035,7.012,4.553,10.989,4.553c3.977,0,7.955-1.518,10.989-4.553    c6.07-6.069,6.07-15.91,0-21.979c-9.442-9.442-19.614-17.885-30.376-25.307l47.647-47.647    c34.45,39.529,55.343,91.166,55.343,147.594C480.916,380.019,380.019,480.916,256,480.916z" fill="#D80027"/>
	</g>
</g>
<g>
</g>
<g>
</g>
<g>
</g>
<g>
</g>
<g>
</g>
<g>
</g>
<g>
</g>
<g>
</g>
<g>
</g>
<g>
</g>
<g>
</g>
<g>
</g>
<g>
</g>
<g>
</g>
<g>
</g>
</svg>
